{
  "asset": {
    "version": "2.0",
    "generator": "THREE.GLTFExporter"
  },
  "scenes": [
    {
      "nodes": [
        0
      ]
    }
  ],
  "scene": 0,
  "nodes": [
    {
      "children": [
        6
      ],
      "matrix": [
        0.01,
        0,
        0,
        0,
        0,
        0.01,
        0,
        0,
        0,
        0,
        0.01,
        0,
        0,
        0,
        0,
        1
      ]
    },
    {
      "name": "3DModel",
      "mesh": 0
    },
    {
      "matrix": [
        639.1900217614979,
        0,
        0,
        0,
        0,
        639.1900217614979,
        0,
        0,
        0,
        0,
        639.1900217614979,
        0,
        22,
        -49.60775459175153,
        131,
        1
      ],
      "name": "3DModel",
      "children": [
        1
      ]
    },
    {
      "matrix": [
        0.5883484054145521,
        0.39223227027636803,
        -0.7071067811865475,
        0,
        -0.554700196225229,
        0.8320502943378437,
        0,
        0,
        0.588348405414552,
        0.392232270276368,
        0.7071067811865476,
        0,
        0,
        0,
        0,
        1
      ],
      "name": "Directional Light",
      "extensions": {
        "KHR_lights_punctual": {
          "light": 0
        }
      }
    },
    {
      "matrix": [
        -0.9638311066893728,
        -1.4488388377920103e-8,
        -0.2665137853431577,
        0,
        -0.062294778605269684,
        0.9722992880819643,
        0.22528527460494566,
        0,
        0.2591311604891612,
        0.2337393727965084,
        -0.9371322997678797,
        0,
        324.6910686496288,
        269.60226320881816,
        -892.9450052732819,
        1
      ],
      "camera": 0
    },
    {
      "matrix": [
        1,
        0,
        0,
        0,
        0,
        1,
        0,
        0,
        0,
        0,
        1,
        0,
        0,
        1,
        0,
        1
      ],
      "name": "Default Ambient Light"
    },
    {
      "name": "Scene 1",
      "children": [
        2,
        3,
        4,
        5
      ]
    }
  ],
  "bufferViews": [
    {
      "buffer": 0,
      "byteOffset": 0,
      "byteLength": 663696,
      "target": 34962,
      "byteStride": 12
    },
    {
      "buffer": 0,
      "byteOffset": 663696,
      "byteLength": 663696,
      "target": 34962,
      "byteStride": 12
    },
    {
      "buffer": 0,
      "byteOffset": 1327392,
      "byteLength": 442464,
      "target": 34962,
      "byteStride": 8
    }
  ],
  "buffers": [
    {
      "byteLength": 1769856,
      "uri": "data:application/octet-stream;base64,"
    }
  ],
  "accessors": [
    {
      "bufferView": 0,
      "componentType": 5126,
      "count": 55308,
      "max": [
        0.23725000023841858,
        0.11044000089168549,
        0.22917400300502777
      ],
      "min": [
        -0.32750698924064636,
        -0.046007998287677765,
        -0.2807849943637848
      ],
      "type": "VEC3"
    },
    {
      "bufferView": 1,
      "componentType": 5126,
      "count": 55308,
      "max": [
        0.9983000159263611,
        1,
        0.9997000098228455
      ],
      "min": [
        -0.9988999962806702,
        -0.9993000030517578,
        -0.9979000091552734
      ],
      "type": "VEC3"
    },
    {
      "bufferView": 2,
      "componentType": 5126,
      "count": 55308,
      "max": [
        0.9999920129776001,
        0.997937023639679
      ],
      "min": [
        0.0006409999914467335,
        0.00025400001322850585
      ],
      "type": "VEC2"
    }
  ],
  "meshes": [
    {
      "primitives": [
        {
          "mode": 4,
          "attributes": {
            "POSITION": 0,
            "NORMAL": 1,
            "TEXCOORD_0": 2
          },
          "extras": {
            "parameters": {
              "width": 0.5647569894790649,
              "height": 0.15644799917936325,
              "depth": 0.5099589973688126,
              "subdivisions": 0
            },
            "type": "NonParametricGeometry"
          }
        }
      ]
    }
  ],
  "extensions": {
    "KHR_lights_punctual": {
      "lights": [
        {
          "name": "Directional Light",
          "color": [
            1,
            1,
            1
          ],
          "intensity": 0.7,
          "type": "directional"
        }
      ]
    }
  },
  "cameras": [
    {
      "type": "orthographic",
      "orthographic": {
        "xmag": 7.663832822251249,
        "ymag": 4.18816488997246,
        "zfar": 100000,
        "znear": 0
      }
    }
  ],
  "extensionsUsed": [
    "KHR_lights_punctual"
  ]
}